<mxfile host="app.diagrams.net" agent="Mozilla/5.0 (X11; Linux x86_64; rv:129.0) Gecko/20100101 Firefox/129.0" version="24.7.4">
  <diagram name="Page-1" id="vRWqJBKdBhoxun309Jdk">
    <mxGraphModel dx="1434" dy="888" grid="1" gridSize="10" guides="1" tooltips="1" connect="1" arrows="1" fold="1" page="1" pageScale="1" pageWidth="827" pageHeight="1169" math="0" shadow="0">
      <root>
        <mxCell id="0" />
        <mxCell id="1" parent="0" />
        <mxCell id="8TnExVTHPUKoujibXdd6-1" value="" style="ellipse;whiteSpace=wrap;html=1;aspect=fixed;" vertex="1" parent="1">
          <mxGeometry x="90" y="200" width="20" height="20" as="geometry" />
        </mxCell>
        <mxCell id="8TnExVTHPUKoujibXdd6-2" value="" style="endArrow=none;html=1;rounded=0;exitX=1;exitY=0.5;exitDx=0;exitDy=0;entryX=0;entryY=1;entryDx=0;entryDy=0;" edge="1" parent="1" source="8TnExVTHPUKoujibXdd6-1" target="8TnExVTHPUKoujibXdd6-5">
          <mxGeometry width="50" height="50" relative="1" as="geometry">
            <mxPoint x="380" y="360" as="sourcePoint" />
            <mxPoint x="150" y="180" as="targetPoint" />
          </mxGeometry>
        </mxCell>
        <mxCell id="8TnExVTHPUKoujibXdd6-5" value="" style="ellipse;whiteSpace=wrap;html=1;aspect=fixed;" vertex="1" parent="1">
          <mxGeometry x="150" y="180" width="20" height="20" as="geometry" />
        </mxCell>
        <mxCell id="8TnExVTHPUKoujibXdd6-6" value="" style="endArrow=none;html=1;rounded=0;exitX=1;exitY=0;exitDx=0;exitDy=0;" edge="1" parent="1" source="8TnExVTHPUKoujibXdd6-7">
          <mxGeometry width="50" height="50" relative="1" as="geometry">
            <mxPoint x="440" y="340" as="sourcePoint" />
            <mxPoint x="170" y="140" as="targetPoint" />
          </mxGeometry>
        </mxCell>
        <mxCell id="8TnExVTHPUKoujibXdd6-9" value="" style="endArrow=none;html=1;rounded=0;exitX=1;exitY=0;exitDx=0;exitDy=0;" edge="1" parent="1" source="8TnExVTHPUKoujibXdd6-5" target="8TnExVTHPUKoujibXdd6-7">
          <mxGeometry width="50" height="50" relative="1" as="geometry">
            <mxPoint x="167" y="183" as="sourcePoint" />
            <mxPoint x="170" y="140" as="targetPoint" />
          </mxGeometry>
        </mxCell>
        <mxCell id="8TnExVTHPUKoujibXdd6-7" value="" style="ellipse;whiteSpace=wrap;html=1;aspect=fixed;" vertex="1" parent="1">
          <mxGeometry x="160" y="130" width="20" height="20" as="geometry" />
        </mxCell>
        <mxCell id="8TnExVTHPUKoujibXdd6-10" value="" style="ellipse;whiteSpace=wrap;html=1;aspect=fixed;" vertex="1" parent="1">
          <mxGeometry x="220" y="180" width="20" height="20" as="geometry" />
        </mxCell>
        <mxCell id="8TnExVTHPUKoujibXdd6-11" value="" style="rounded=1;whiteSpace=wrap;html=1;strokeColor=#FF9999;" vertex="1" parent="1">
          <mxGeometry x="160" y="400" width="190" height="130" as="geometry" />
        </mxCell>
        <mxCell id="8TnExVTHPUKoujibXdd6-26" value="" style="ellipse;whiteSpace=wrap;html=1;aspect=fixed;" vertex="1" parent="1">
          <mxGeometry x="180" y="490" width="20" height="20" as="geometry" />
        </mxCell>
        <mxCell id="8TnExVTHPUKoujibXdd6-27" value="" style="endArrow=none;html=1;rounded=0;exitX=1;exitY=0.5;exitDx=0;exitDy=0;entryX=0;entryY=1;entryDx=0;entryDy=0;" edge="1" parent="1" source="8TnExVTHPUKoujibXdd6-26" target="8TnExVTHPUKoujibXdd6-28">
          <mxGeometry width="50" height="50" relative="1" as="geometry">
            <mxPoint x="470" y="650" as="sourcePoint" />
            <mxPoint x="240" y="470" as="targetPoint" />
          </mxGeometry>
        </mxCell>
        <mxCell id="8TnExVTHPUKoujibXdd6-28" value="" style="ellipse;whiteSpace=wrap;html=1;aspect=fixed;" vertex="1" parent="1">
          <mxGeometry x="240" y="470" width="20" height="20" as="geometry" />
        </mxCell>
        <mxCell id="8TnExVTHPUKoujibXdd6-30" value="" style="endArrow=none;html=1;rounded=0;exitX=1;exitY=0;exitDx=0;exitDy=0;" edge="1" parent="1" source="8TnExVTHPUKoujibXdd6-28">
          <mxGeometry width="50" height="50" relative="1" as="geometry">
            <mxPoint x="257" y="473" as="sourcePoint" />
            <mxPoint x="259.52434850584564" y="439.9886813772391" as="targetPoint" />
          </mxGeometry>
        </mxCell>
        <mxCell id="8TnExVTHPUKoujibXdd6-32" value="" style="ellipse;whiteSpace=wrap;html=1;aspect=fixed;" vertex="1" parent="1">
          <mxGeometry x="310" y="470" width="20" height="20" as="geometry" />
        </mxCell>
        <mxCell id="8TnExVTHPUKoujibXdd6-33" value="" style="rounded=1;whiteSpace=wrap;html=1;strokeColor=#FF9999;" vertex="1" parent="1">
          <mxGeometry x="370" y="400" width="190" height="130" as="geometry" />
        </mxCell>
        <mxCell id="8TnExVTHPUKoujibXdd6-34" value="" style="ellipse;whiteSpace=wrap;html=1;aspect=fixed;" vertex="1" parent="1">
          <mxGeometry x="390" y="490" width="20" height="20" as="geometry" />
        </mxCell>
        <mxCell id="8TnExVTHPUKoujibXdd6-35" value="" style="endArrow=none;html=1;rounded=0;exitX=1;exitY=0.5;exitDx=0;exitDy=0;entryX=0;entryY=1;entryDx=0;entryDy=0;" edge="1" parent="1" source="8TnExVTHPUKoujibXdd6-34" target="8TnExVTHPUKoujibXdd6-36">
          <mxGeometry width="50" height="50" relative="1" as="geometry">
            <mxPoint x="680" y="650" as="sourcePoint" />
            <mxPoint x="450" y="470" as="targetPoint" />
          </mxGeometry>
        </mxCell>
        <mxCell id="8TnExVTHPUKoujibXdd6-36" value="" style="ellipse;whiteSpace=wrap;html=1;aspect=fixed;" vertex="1" parent="1">
          <mxGeometry x="450" y="470" width="20" height="20" as="geometry" />
        </mxCell>
        <mxCell id="8TnExVTHPUKoujibXdd6-38" value="" style="endArrow=none;html=1;rounded=0;exitX=1;exitY=1;exitDx=0;exitDy=0;" edge="1" parent="1" source="8TnExVTHPUKoujibXdd6-36">
          <mxGeometry width="50" height="50" relative="1" as="geometry">
            <mxPoint x="467" y="473" as="sourcePoint" />
            <mxPoint x="501.14168464718887" y="505.3599300532894" as="targetPoint" />
          </mxGeometry>
        </mxCell>
        <mxCell id="8TnExVTHPUKoujibXdd6-40" value="" style="ellipse;whiteSpace=wrap;html=1;aspect=fixed;" vertex="1" parent="1">
          <mxGeometry x="520" y="470" width="20" height="20" as="geometry" />
        </mxCell>
        <mxCell id="8TnExVTHPUKoujibXdd6-48" value="" style="rounded=1;whiteSpace=wrap;html=1;strokeColor=#33FF33;" vertex="1" parent="1">
          <mxGeometry x="580" y="400" width="190" height="130" as="geometry" />
        </mxCell>
        <mxCell id="8TnExVTHPUKoujibXdd6-49" value="" style="ellipse;whiteSpace=wrap;html=1;aspect=fixed;" vertex="1" parent="1">
          <mxGeometry x="600" y="490" width="20" height="20" as="geometry" />
        </mxCell>
        <mxCell id="8TnExVTHPUKoujibXdd6-50" value="" style="endArrow=none;html=1;rounded=0;exitX=1;exitY=0.5;exitDx=0;exitDy=0;entryX=0;entryY=1;entryDx=0;entryDy=0;" edge="1" parent="1" source="8TnExVTHPUKoujibXdd6-49" target="8TnExVTHPUKoujibXdd6-51">
          <mxGeometry width="50" height="50" relative="1" as="geometry">
            <mxPoint x="890" y="650" as="sourcePoint" />
            <mxPoint x="660" y="470" as="targetPoint" />
          </mxGeometry>
        </mxCell>
        <mxCell id="8TnExVTHPUKoujibXdd6-51" value="" style="ellipse;whiteSpace=wrap;html=1;aspect=fixed;" vertex="1" parent="1">
          <mxGeometry x="660" y="470" width="20" height="20" as="geometry" />
        </mxCell>
        <mxCell id="8TnExVTHPUKoujibXdd6-52" value="" style="endArrow=none;html=1;rounded=0;exitX=1;exitY=0.5;exitDx=0;exitDy=0;entryX=0;entryY=0.5;entryDx=0;entryDy=0;" edge="1" parent="1" source="8TnExVTHPUKoujibXdd6-51" target="8TnExVTHPUKoujibXdd6-54">
          <mxGeometry width="50" height="50" relative="1" as="geometry">
            <mxPoint x="677" y="473" as="sourcePoint" />
            <mxPoint x="711" y="505" as="targetPoint" />
          </mxGeometry>
        </mxCell>
        <mxCell id="8TnExVTHPUKoujibXdd6-54" value="" style="ellipse;whiteSpace=wrap;html=1;aspect=fixed;" vertex="1" parent="1">
          <mxGeometry x="730" y="470" width="20" height="20" as="geometry" />
        </mxCell>
        <mxCell id="8TnExVTHPUKoujibXdd6-61" value="" style="rounded=1;whiteSpace=wrap;html=1;strokeColor=#FF9999;" vertex="1" parent="1">
          <mxGeometry x="160" y="560" width="190" height="130" as="geometry" />
        </mxCell>
        <mxCell id="8TnExVTHPUKoujibXdd6-67" value="" style="rounded=1;whiteSpace=wrap;html=1;strokeColor=#33FF33;" vertex="1" parent="1">
          <mxGeometry x="370" y="555" width="190" height="130" as="geometry" />
        </mxCell>
        <mxCell id="8TnExVTHPUKoujibXdd6-81" value="" style="ellipse;whiteSpace=wrap;html=1;aspect=fixed;" vertex="1" parent="1">
          <mxGeometry x="180" y="650" width="20" height="20" as="geometry" />
        </mxCell>
        <mxCell id="8TnExVTHPUKoujibXdd6-82" value="" style="endArrow=none;html=1;rounded=0;exitX=1;exitY=0.5;exitDx=0;exitDy=0;entryX=0;entryY=1;entryDx=0;entryDy=0;" edge="1" parent="1" source="8TnExVTHPUKoujibXdd6-81" target="8TnExVTHPUKoujibXdd6-83">
          <mxGeometry width="50" height="50" relative="1" as="geometry">
            <mxPoint x="470" y="810" as="sourcePoint" />
            <mxPoint x="240" y="630" as="targetPoint" />
          </mxGeometry>
        </mxCell>
        <mxCell id="8TnExVTHPUKoujibXdd6-83" value="" style="ellipse;whiteSpace=wrap;html=1;aspect=fixed;" vertex="1" parent="1">
          <mxGeometry x="235" y="610" width="20" height="20" as="geometry" />
        </mxCell>
        <mxCell id="8TnExVTHPUKoujibXdd6-84" value="" style="ellipse;whiteSpace=wrap;html=1;aspect=fixed;" vertex="1" parent="1">
          <mxGeometry x="310" y="635" width="20" height="20" as="geometry" />
        </mxCell>
        <mxCell id="8TnExVTHPUKoujibXdd6-85" value="" style="endArrow=none;html=1;rounded=0;entryX=1;entryY=0;entryDx=0;entryDy=0;" edge="1" parent="1" target="8TnExVTHPUKoujibXdd6-83">
          <mxGeometry width="50" height="50" relative="1" as="geometry">
            <mxPoint x="310" y="580" as="sourcePoint" />
            <mxPoint x="248" y="637" as="targetPoint" />
          </mxGeometry>
        </mxCell>
        <mxCell id="8TnExVTHPUKoujibXdd6-91" value="" style="ellipse;whiteSpace=wrap;html=1;aspect=fixed;" vertex="1" parent="1">
          <mxGeometry x="385" y="635" width="20" height="20" as="geometry" />
        </mxCell>
        <mxCell id="8TnExVTHPUKoujibXdd6-92" value="" style="endArrow=none;html=1;rounded=0;exitX=1;exitY=0;exitDx=0;exitDy=0;entryX=0;entryY=1;entryDx=0;entryDy=0;" edge="1" parent="1" source="8TnExVTHPUKoujibXdd6-91" target="8TnExVTHPUKoujibXdd6-93">
          <mxGeometry width="50" height="50" relative="1" as="geometry">
            <mxPoint x="675" y="795" as="sourcePoint" />
            <mxPoint x="445" y="615" as="targetPoint" />
          </mxGeometry>
        </mxCell>
        <mxCell id="8TnExVTHPUKoujibXdd6-93" value="" style="ellipse;whiteSpace=wrap;html=1;aspect=fixed;" vertex="1" parent="1">
          <mxGeometry x="440" y="595" width="20" height="20" as="geometry" />
        </mxCell>
        <mxCell id="8TnExVTHPUKoujibXdd6-94" value="" style="ellipse;whiteSpace=wrap;html=1;aspect=fixed;" vertex="1" parent="1">
          <mxGeometry x="515" y="630" width="20" height="20" as="geometry" />
        </mxCell>
        <mxCell id="8TnExVTHPUKoujibXdd6-95" value="" style="endArrow=none;html=1;rounded=0;entryX=1;entryY=0.5;entryDx=0;entryDy=0;exitX=0;exitY=0;exitDx=0;exitDy=0;" edge="1" parent="1" source="8TnExVTHPUKoujibXdd6-94" target="8TnExVTHPUKoujibXdd6-93">
          <mxGeometry width="50" height="50" relative="1" as="geometry">
            <mxPoint x="515" y="565" as="sourcePoint" />
            <mxPoint x="453" y="622" as="targetPoint" />
          </mxGeometry>
        </mxCell>
        <mxCell id="8TnExVTHPUKoujibXdd6-126" value="" style="rounded=1;whiteSpace=wrap;html=1;strokeColor=#FF9999;" vertex="1" parent="1">
          <mxGeometry x="160" y="720" width="190" height="130" as="geometry" />
        </mxCell>
        <mxCell id="8TnExVTHPUKoujibXdd6-127" value="" style="rounded=1;whiteSpace=wrap;html=1;strokeColor=#FF9999;" vertex="1" parent="1">
          <mxGeometry x="370" y="720" width="190" height="130" as="geometry" />
        </mxCell>
        <mxCell id="8TnExVTHPUKoujibXdd6-128" value="" style="rounded=1;whiteSpace=wrap;html=1;strokeColor=#FF9999;" vertex="1" parent="1">
          <mxGeometry x="580" y="720" width="190" height="130" as="geometry" />
        </mxCell>
        <mxCell id="8TnExVTHPUKoujibXdd6-129" value="" style="rounded=1;whiteSpace=wrap;html=1;strokeColor=#33FF33;" vertex="1" parent="1">
          <mxGeometry x="790" y="720" width="190" height="130" as="geometry" />
        </mxCell>
        <mxCell id="8TnExVTHPUKoujibXdd6-130" value="" style="ellipse;whiteSpace=wrap;html=1;aspect=fixed;" vertex="1" parent="1">
          <mxGeometry x="170" y="790" width="20" height="20" as="geometry" />
        </mxCell>
        <mxCell id="8TnExVTHPUKoujibXdd6-131" value="" style="endArrow=none;html=1;rounded=0;exitX=1;exitY=0.5;exitDx=0;exitDy=0;entryX=0;entryY=0.5;entryDx=0;entryDy=0;" edge="1" parent="1" source="8TnExVTHPUKoujibXdd6-130" target="8TnExVTHPUKoujibXdd6-132">
          <mxGeometry width="50" height="50" relative="1" as="geometry">
            <mxPoint x="460" y="950" as="sourcePoint" />
            <mxPoint x="230" y="770" as="targetPoint" />
          </mxGeometry>
        </mxCell>
        <mxCell id="8TnExVTHPUKoujibXdd6-132" value="" style="ellipse;whiteSpace=wrap;html=1;aspect=fixed;" vertex="1" parent="1">
          <mxGeometry x="250" y="810" width="20" height="20" as="geometry" />
        </mxCell>
        <mxCell id="8TnExVTHPUKoujibXdd6-133" value="" style="ellipse;whiteSpace=wrap;html=1;aspect=fixed;" vertex="1" parent="1">
          <mxGeometry x="310" y="782.5" width="20" height="20" as="geometry" />
        </mxCell>
        <mxCell id="8TnExVTHPUKoujibXdd6-134" value="" style="endArrow=none;html=1;rounded=0;entryX=1;entryY=0.5;entryDx=0;entryDy=0;" edge="1" parent="1" target="8TnExVTHPUKoujibXdd6-132">
          <mxGeometry width="50" height="50" relative="1" as="geometry">
            <mxPoint x="340" y="820" as="sourcePoint" />
            <mxPoint x="238" y="777" as="targetPoint" />
          </mxGeometry>
        </mxCell>
        <mxCell id="8TnExVTHPUKoujibXdd6-135" value="" style="ellipse;whiteSpace=wrap;html=1;aspect=fixed;" vertex="1" parent="1">
          <mxGeometry x="375" y="782.5" width="20" height="20" as="geometry" />
        </mxCell>
        <mxCell id="8TnExVTHPUKoujibXdd6-136" value="" style="endArrow=none;html=1;rounded=0;exitX=1;exitY=0.5;exitDx=0;exitDy=0;entryX=0;entryY=0.5;entryDx=0;entryDy=0;" edge="1" parent="1" source="8TnExVTHPUKoujibXdd6-135" target="8TnExVTHPUKoujibXdd6-137">
          <mxGeometry width="50" height="50" relative="1" as="geometry">
            <mxPoint x="665" y="942.5" as="sourcePoint" />
            <mxPoint x="435" y="762.5" as="targetPoint" />
          </mxGeometry>
        </mxCell>
        <mxCell id="8TnExVTHPUKoujibXdd6-137" value="" style="ellipse;whiteSpace=wrap;html=1;aspect=fixed;" vertex="1" parent="1">
          <mxGeometry x="455" y="802.5" width="20" height="20" as="geometry" />
        </mxCell>
        <mxCell id="8TnExVTHPUKoujibXdd6-138" value="" style="ellipse;whiteSpace=wrap;html=1;aspect=fixed;" vertex="1" parent="1">
          <mxGeometry x="515" y="782.5" width="20" height="20" as="geometry" />
        </mxCell>
        <mxCell id="8TnExVTHPUKoujibXdd6-139" value="" style="endArrow=none;html=1;rounded=0;entryX=1;entryY=0.5;entryDx=0;entryDy=0;" edge="1" parent="1" target="8TnExVTHPUKoujibXdd6-137">
          <mxGeometry width="50" height="50" relative="1" as="geometry">
            <mxPoint x="545" y="837.5" as="sourcePoint" />
            <mxPoint x="443" y="769.5" as="targetPoint" />
          </mxGeometry>
        </mxCell>
        <mxCell id="8TnExVTHPUKoujibXdd6-140" value="" style="ellipse;whiteSpace=wrap;html=1;aspect=fixed;" vertex="1" parent="1">
          <mxGeometry x="590" y="802.5" width="20" height="20" as="geometry" />
        </mxCell>
        <mxCell id="8TnExVTHPUKoujibXdd6-141" value="" style="endArrow=none;html=1;rounded=0;exitX=1;exitY=0.5;exitDx=0;exitDy=0;entryX=0;entryY=0.5;entryDx=0;entryDy=0;" edge="1" parent="1" source="8TnExVTHPUKoujibXdd6-140" target="8TnExVTHPUKoujibXdd6-142">
          <mxGeometry width="50" height="50" relative="1" as="geometry">
            <mxPoint x="880" y="962.5" as="sourcePoint" />
            <mxPoint x="650" y="782.5" as="targetPoint" />
          </mxGeometry>
        </mxCell>
        <mxCell id="8TnExVTHPUKoujibXdd6-142" value="" style="ellipse;whiteSpace=wrap;html=1;aspect=fixed;" vertex="1" parent="1">
          <mxGeometry x="670" y="822.5" width="20" height="20" as="geometry" />
        </mxCell>
        <mxCell id="8TnExVTHPUKoujibXdd6-143" value="" style="ellipse;whiteSpace=wrap;html=1;aspect=fixed;" vertex="1" parent="1">
          <mxGeometry x="730" y="782.5" width="20" height="20" as="geometry" />
        </mxCell>
        <mxCell id="8TnExVTHPUKoujibXdd6-144" value="" style="endArrow=none;html=1;rounded=0;entryX=0.5;entryY=0;entryDx=0;entryDy=0;" edge="1" parent="1" target="8TnExVTHPUKoujibXdd6-142">
          <mxGeometry width="50" height="50" relative="1" as="geometry">
            <mxPoint x="680" y="757.5" as="sourcePoint" />
            <mxPoint x="658" y="789.5" as="targetPoint" />
          </mxGeometry>
        </mxCell>
        <mxCell id="8TnExVTHPUKoujibXdd6-145" value="" style="ellipse;whiteSpace=wrap;html=1;aspect=fixed;" vertex="1" parent="1">
          <mxGeometry x="805" y="802.5" width="20" height="20" as="geometry" />
        </mxCell>
        <mxCell id="8TnExVTHPUKoujibXdd6-146" value="" style="endArrow=none;html=1;rounded=0;exitX=1;exitY=0.5;exitDx=0;exitDy=0;entryX=0;entryY=0.5;entryDx=0;entryDy=0;" edge="1" parent="1" source="8TnExVTHPUKoujibXdd6-145" target="8TnExVTHPUKoujibXdd6-147">
          <mxGeometry width="50" height="50" relative="1" as="geometry">
            <mxPoint x="1095" y="962.5" as="sourcePoint" />
            <mxPoint x="865" y="782.5" as="targetPoint" />
          </mxGeometry>
        </mxCell>
        <mxCell id="8TnExVTHPUKoujibXdd6-147" value="" style="ellipse;whiteSpace=wrap;html=1;aspect=fixed;" vertex="1" parent="1">
          <mxGeometry x="885" y="822.5" width="20" height="20" as="geometry" />
        </mxCell>
        <mxCell id="8TnExVTHPUKoujibXdd6-148" value="" style="ellipse;whiteSpace=wrap;html=1;aspect=fixed;" vertex="1" parent="1">
          <mxGeometry x="945" y="782.5" width="20" height="20" as="geometry" />
        </mxCell>
        <mxCell id="8TnExVTHPUKoujibXdd6-149" value="" style="endArrow=none;html=1;rounded=0;entryX=1;entryY=0;entryDx=0;entryDy=0;exitX=0;exitY=1;exitDx=0;exitDy=0;" edge="1" parent="1" source="8TnExVTHPUKoujibXdd6-148" target="8TnExVTHPUKoujibXdd6-147">
          <mxGeometry width="50" height="50" relative="1" as="geometry">
            <mxPoint x="895" y="757.5" as="sourcePoint" />
            <mxPoint x="873" y="789.5" as="targetPoint" />
          </mxGeometry>
        </mxCell>
        <mxCell id="8TnExVTHPUKoujibXdd6-150" value="" style="rounded=1;whiteSpace=wrap;html=1;strokeColor=#FF9999;" vertex="1" parent="1">
          <mxGeometry x="160" y="870" width="190" height="130" as="geometry" />
        </mxCell>
        <mxCell id="8TnExVTHPUKoujibXdd6-151" value="" style="ellipse;whiteSpace=wrap;html=1;aspect=fixed;" vertex="1" parent="1">
          <mxGeometry x="180" y="960" width="20" height="20" as="geometry" />
        </mxCell>
        <mxCell id="8TnExVTHPUKoujibXdd6-152" value="" style="endArrow=none;html=1;rounded=0;exitX=1;exitY=0.5;exitDx=0;exitDy=0;entryX=0;entryY=1;entryDx=0;entryDy=0;" edge="1" parent="1" source="8TnExVTHPUKoujibXdd6-151" target="8TnExVTHPUKoujibXdd6-153">
          <mxGeometry width="50" height="50" relative="1" as="geometry">
            <mxPoint x="470" y="1120" as="sourcePoint" />
            <mxPoint x="240" y="940" as="targetPoint" />
          </mxGeometry>
        </mxCell>
        <mxCell id="8TnExVTHPUKoujibXdd6-153" value="" style="ellipse;whiteSpace=wrap;html=1;aspect=fixed;" vertex="1" parent="1">
          <mxGeometry x="240" y="940" width="20" height="20" as="geometry" />
        </mxCell>
        <mxCell id="8TnExVTHPUKoujibXdd6-154" value="" style="endArrow=none;html=1;rounded=0;exitX=1;exitY=0;exitDx=0;exitDy=0;" edge="1" parent="1" source="8TnExVTHPUKoujibXdd6-153">
          <mxGeometry width="50" height="50" relative="1" as="geometry">
            <mxPoint x="257" y="943" as="sourcePoint" />
            <mxPoint x="259.52434850584564" y="909.9886813772391" as="targetPoint" />
          </mxGeometry>
        </mxCell>
        <mxCell id="8TnExVTHPUKoujibXdd6-155" value="" style="ellipse;whiteSpace=wrap;html=1;aspect=fixed;" vertex="1" parent="1">
          <mxGeometry x="310" y="940" width="20" height="20" as="geometry" />
        </mxCell>
        <mxCell id="8TnExVTHPUKoujibXdd6-156" value="" style="rounded=1;whiteSpace=wrap;html=1;strokeColor=#FF9999;" vertex="1" parent="1">
          <mxGeometry x="370" y="870" width="190" height="130" as="geometry" />
        </mxCell>
        <mxCell id="8TnExVTHPUKoujibXdd6-157" value="" style="ellipse;whiteSpace=wrap;html=1;aspect=fixed;" vertex="1" parent="1">
          <mxGeometry x="390" y="960" width="20" height="20" as="geometry" />
        </mxCell>
        <mxCell id="8TnExVTHPUKoujibXdd6-158" value="" style="endArrow=none;html=1;rounded=0;exitX=1;exitY=0.5;exitDx=0;exitDy=0;entryX=0;entryY=1;entryDx=0;entryDy=0;" edge="1" parent="1" source="8TnExVTHPUKoujibXdd6-157" target="8TnExVTHPUKoujibXdd6-159">
          <mxGeometry width="50" height="50" relative="1" as="geometry">
            <mxPoint x="680" y="1120" as="sourcePoint" />
            <mxPoint x="450" y="940" as="targetPoint" />
          </mxGeometry>
        </mxCell>
        <mxCell id="8TnExVTHPUKoujibXdd6-159" value="" style="ellipse;whiteSpace=wrap;html=1;aspect=fixed;" vertex="1" parent="1">
          <mxGeometry x="450" y="940" width="20" height="20" as="geometry" />
        </mxCell>
        <mxCell id="8TnExVTHPUKoujibXdd6-160" value="" style="endArrow=none;html=1;rounded=0;exitX=1;exitY=1;exitDx=0;exitDy=0;" edge="1" parent="1" source="8TnExVTHPUKoujibXdd6-159">
          <mxGeometry width="50" height="50" relative="1" as="geometry">
            <mxPoint x="467" y="943" as="sourcePoint" />
            <mxPoint x="501.14168464718887" y="975.3599300532894" as="targetPoint" />
          </mxGeometry>
        </mxCell>
        <mxCell id="8TnExVTHPUKoujibXdd6-161" value="" style="ellipse;whiteSpace=wrap;html=1;aspect=fixed;" vertex="1" parent="1">
          <mxGeometry x="520" y="940" width="20" height="20" as="geometry" />
        </mxCell>
        <mxCell id="8TnExVTHPUKoujibXdd6-162" value="" style="rounded=1;whiteSpace=wrap;html=1;strokeColor=#33FF33;" vertex="1" parent="1">
          <mxGeometry x="580" y="870" width="190" height="130" as="geometry" />
        </mxCell>
        <mxCell id="8TnExVTHPUKoujibXdd6-163" value="" style="ellipse;whiteSpace=wrap;html=1;aspect=fixed;" vertex="1" parent="1">
          <mxGeometry x="600" y="960" width="20" height="20" as="geometry" />
        </mxCell>
        <mxCell id="8TnExVTHPUKoujibXdd6-164" value="" style="endArrow=none;html=1;rounded=0;exitX=1;exitY=0.5;exitDx=0;exitDy=0;entryX=0;entryY=1;entryDx=0;entryDy=0;" edge="1" parent="1" source="8TnExVTHPUKoujibXdd6-163" target="8TnExVTHPUKoujibXdd6-165">
          <mxGeometry width="50" height="50" relative="1" as="geometry">
            <mxPoint x="890" y="1120" as="sourcePoint" />
            <mxPoint x="660" y="940" as="targetPoint" />
          </mxGeometry>
        </mxCell>
        <mxCell id="8TnExVTHPUKoujibXdd6-165" value="" style="ellipse;whiteSpace=wrap;html=1;aspect=fixed;" vertex="1" parent="1">
          <mxGeometry x="660" y="940" width="20" height="20" as="geometry" />
        </mxCell>
        <mxCell id="8TnExVTHPUKoujibXdd6-166" value="" style="endArrow=none;html=1;rounded=0;exitX=1;exitY=0.5;exitDx=0;exitDy=0;entryX=0;entryY=0.5;entryDx=0;entryDy=0;" edge="1" parent="1" source="8TnExVTHPUKoujibXdd6-165" target="8TnExVTHPUKoujibXdd6-167">
          <mxGeometry width="50" height="50" relative="1" as="geometry">
            <mxPoint x="677" y="943" as="sourcePoint" />
            <mxPoint x="711" y="975" as="targetPoint" />
          </mxGeometry>
        </mxCell>
        <mxCell id="8TnExVTHPUKoujibXdd6-167" value="" style="ellipse;whiteSpace=wrap;html=1;aspect=fixed;" vertex="1" parent="1">
          <mxGeometry x="730" y="940" width="20" height="20" as="geometry" />
        </mxCell>
        <mxCell id="8TnExVTHPUKoujibXdd6-168" value="&lt;font style=&quot;font-size: 24px;&quot;&gt;Worker&lt;/font&gt;" style="text;html=1;align=center;verticalAlign=middle;whiteSpace=wrap;rounded=0;" vertex="1" parent="1">
          <mxGeometry x="70" y="450" width="60" height="30" as="geometry" />
        </mxCell>
        <mxCell id="8TnExVTHPUKoujibXdd6-187" value="&lt;font style=&quot;font-size: 24px;&quot;&gt;Worker&lt;/font&gt;" style="text;html=1;align=center;verticalAlign=middle;whiteSpace=wrap;rounded=0;" vertex="1" parent="1">
          <mxGeometry x="70" y="610" width="60" height="30" as="geometry" />
        </mxCell>
        <mxCell id="8TnExVTHPUKoujibXdd6-188" value="&lt;font style=&quot;font-size: 24px;&quot;&gt;Worker&lt;/font&gt;" style="text;html=1;align=center;verticalAlign=middle;whiteSpace=wrap;rounded=0;" vertex="1" parent="1">
          <mxGeometry x="70" y="770" width="60" height="30" as="geometry" />
        </mxCell>
        <mxCell id="8TnExVTHPUKoujibXdd6-189" value="&lt;font style=&quot;font-size: 24px;&quot;&gt;Worker&lt;/font&gt;" style="text;html=1;align=center;verticalAlign=middle;whiteSpace=wrap;rounded=0;" vertex="1" parent="1">
          <mxGeometry x="70" y="920" width="60" height="30" as="geometry" />
        </mxCell>
        <mxCell id="8TnExVTHPUKoujibXdd6-190" value="" style="endArrow=classic;html=1;rounded=0;" edge="1" parent="1">
          <mxGeometry width="50" height="50" relative="1" as="geometry">
            <mxPoint x="160" y="1050" as="sourcePoint" />
            <mxPoint x="1231" y="1040" as="targetPoint" />
          </mxGeometry>
        </mxCell>
        <mxCell id="8TnExVTHPUKoujibXdd6-191" value="&lt;font style=&quot;font-size: 24px;&quot;&gt;Start training&lt;/font&gt;" style="text;html=1;align=center;verticalAlign=middle;whiteSpace=wrap;rounded=0;" vertex="1" parent="1">
          <mxGeometry x="772.5" y="1050" width="225" height="30" as="geometry" />
        </mxCell>
        <mxCell id="8TnExVTHPUKoujibXdd6-192" value="" style="endArrow=none;dashed=1;html=1;dashPattern=1 3;strokeWidth=2;rounded=0;entryX=0.5;entryY=1;entryDx=0;entryDy=0;" edge="1" parent="1" target="8TnExVTHPUKoujibXdd6-129">
          <mxGeometry width="50" height="50" relative="1" as="geometry">
            <mxPoint x="890" y="1040" as="sourcePoint" />
            <mxPoint x="550" y="770" as="targetPoint" />
          </mxGeometry>
        </mxCell>
        <mxCell id="8TnExVTHPUKoujibXdd6-193" value="&lt;div&gt;&lt;font style=&quot;font-size: 24px;&quot;&gt;Time&lt;/font&gt;&lt;/div&gt;" style="text;html=1;align=center;verticalAlign=middle;whiteSpace=wrap;rounded=0;" vertex="1" parent="1">
          <mxGeometry x="1016" y="1000" width="225" height="30" as="geometry" />
        </mxCell>
      </root>
    </mxGraphModel>
  </diagram>
</mxfile>
